<?xml version="1.0" encoding="utf-8"?>
<!-- Generator: Adobe Illustrator 26.1.0, SVG Export Plug-In . SVG Version: 6.00 Build 0)  -->
<svg version="1.1" id="Layer_1" xmlns="http://www.w3.org/2000/svg" xmlns:xlink="http://www.w3.org/1999/xlink" x="0px" y="0px"
	 viewBox="0 0 1000 1000" style="enable-background:new 0 0 1000 1000;" xml:space="preserve">
<style type="text/css">
	.st0{fill:#FFFFFF;}
</style>
<g>
	<path class="st0" d="M569.23,527.59v395.75c-22.54,3.77-45.7,5.7-69.26,5.7c-23.56,0-46.65-1.92-69.19-5.7V527.59
		c0-38.43,31.06-69.72,69.19-69.72C538.17,457.87,569.23,489.16,569.23,527.59z"/>
	<path class="st0" d="M739.9,500c0,69.31-28.94,131.83-75.32,175.88V527.59c0-91.41-73.82-165.79-164.61-165.79
		c-90.71,0-164.54,74.39-164.54,165.79v148.29c-46.45-44.06-75.39-106.57-75.39-175.88c0-133.54,107.47-241.76,239.93-241.76
		C632.5,258.24,739.9,366.46,739.9,500z"/>
	<path class="st0" d="M925.82,500c0,178.15-107.81,330.97-261.25,395.82V789.25C763.94,731.74,830.81,623.73,830.81,500
		c0-184.12-148.13-333.37-330.85-333.37S169.12,315.88,169.12,500c0,123.73,66.95,231.74,166.31,289.25v106.57
		C181.99,830.97,74.18,678.21,74.18,500c0-236.96,190.62-429.03,425.79-429.03C735.13,70.97,925.82,263.04,925.82,500z"/>
</g>
</svg>
