<?xml version="1.0" encoding="utf-8"?>
<!-- Generator: Adobe Illustrator 26.1.0, SVG Export Plug-In . SVG Version: 6.00 Build 0)  -->
<svg version="1.1" id="Layer_1" xmlns="http://www.w3.org/2000/svg" xmlns:xlink="http://www.w3.org/1999/xlink" x="0px" y="0px"
	 viewBox="0 0 1920 577.5" style="enable-background:new 0 0 1920 577.5;" xml:space="preserve">
<style type="text/css">
	.st0{fill:#FFFFFF;}
</style>
<g>
	<g>
		<path class="st0" d="M718,292.8h-41.1c-4.8,0-8.6-3.8-8.6-8.6v-23.9c0-4.8,3.8-8.6,8.6-8.6h93.9c4.8,0,8.6,3.9,8.6,8.6v136.3
			c0,4.8-3.8,8.6-8.6,8.6h-35.6c-4.8,0-8.6-3.8-8.6-8.6v-95.1C726.6,296.6,722.7,292.8,718,292.8z M717.4,200.1
			c0-18.4,14.1-31.3,33.8-31.3s33.8,12.9,33.8,31.3c0,18.4-14.1,30.7-33.8,30.7S717.4,218.5,717.4,200.1z"/>
		<path class="st0" d="M857.9,251.6h27.3c4.1,0,7.6,2.9,8.4,6.9L896,270h1.2c12.3-11.7,28.8-22.1,51.3-22.1
			c34.1,0,48.8,24.6,48.8,62.6v85.9c0,4.8-3.8,8.6-8.6,8.6h-35.6c-4.8,0-8.6-3.8-8.6-8.6v-79.2c0-17.2-4.3-24.5-17.8-24.5
			c-8.6,0-14.9,3.3-21.7,9.1c-1.9,1.6-2.9,4-2.9,6.4v88.2c0,4.8-3.8,8.6-8.6,8.6h-35.6c-4.8,0-8.6-3.8-8.6-8.6V260.2
			C849.3,255.5,853.2,251.6,857.9,251.6z"/>
		<path class="st0" d="M1073,249.8h-40.2c-4.8,0-8.6-3.9-8.6-8.6v-27c0-4.8,3.8-8.6,8.6-8.6h150.4c4.8,0,8.6,3.9,8.6,8.6v27
			c0,4.8-3.8,8.6-8.6,8.6H1143c-4.8,0-8.6,3.9-8.6,8.6v138.1c0,4.8-3.8,8.6-8.6,8.6h-35.6c-4.8,0-8.6-3.8-8.6-8.6V258.4
			C1081.6,253.6,1077.7,249.8,1073,249.8z"/>
		<path class="st0" d="M1212.9,328.4c0-51,38.7-80.4,79.2-80.4c40.5,0,79.2,29.5,79.2,80.4s-38.7,80.4-79.2,80.4
			C1251.6,408.8,1212.9,379.3,1212.9,328.4z M1317.3,328.4c0-23.3-7.4-38.1-25.2-38.1s-25.2,14.7-25.2,38.1s7.4,38.1,25.2,38.1
			S1317.3,351.7,1317.3,328.4z"/>
		<path class="st0" d="M1401.3,346.2v-85.9c0-4.8,3.8-8.6,8.6-8.6h35.6c4.8,0,8.6,3.9,8.6,8.6v79.2c0,17.2,3.7,24.5,17.5,24.5
			c8.2,0,14.1-2.1,21.3-11.2c1.2-1.5,1.8-3.3,1.8-5.2v-87.3c0-4.8,3.8-8.6,8.6-8.6h35.6c4.8,0,8.6,3.9,8.6,8.6v136.3
			c0,4.8-3.8,8.6-8.6,8.6h-27.2c-4.2,0-7.7-3-8.5-7.1l-2.4-13.2h-1.2c-12.9,14.7-28.2,23.9-49.7,23.9
			C1415.5,408.8,1401.3,384.2,1401.3,346.2z"/>
		<path class="st0" d="M1587.3,328.4c0-51,42.3-80.4,89.9-80.4c20.2,0,38.5,5.7,51.4,14.9c3.8,2.7,4.6,8.2,1.8,12l-14.4,19.6
			c-2.6,3.5-7.3,4.5-11.1,2.4c-8.7-4.7-16.7-6.5-24.6-6.5c-23,0-39,14.7-39,38.1s15.7,38.1,37.1,38.1c11.9,0,22-4,30.9-8.9
			c3.9-2.2,8.9-0.8,11.3,3l12.2,19.3c2.5,4,1.4,9.2-2.5,11.8c-17.8,12-39.1,17.1-57.1,17.1C1624.8,408.8,1587.3,379.3,1587.3,328.4z
			"/>
		<path class="st0" d="M1780.7,191.5h35.6c4.8,0,8.6,3.9,8.6,8.6v40.6c0,0.3,0,0.6-0.1,1l-3,26.5h1.2c9.8-9.8,25.8-20.3,48.5-20.3
			c33.8,0,48.5,24.5,48.5,62.6v85.9c0,4.8-3.8,8.6-8.6,8.6h-35.6c-4.8,0-8.6-3.8-8.6-8.6v-79.2c0-17.2-4.3-24.5-17.8-24.5
			c-8.6,0-14.9,3.3-21.7,9.1c-1.9,1.6-2.9,4-2.9,6.4v88.2c0,4.8-3.8,8.6-8.6,8.6h-35.6c-4.8,0-8.6-3.8-8.6-8.6V200.1
			C1772.1,195.3,1775.9,191.5,1780.7,191.5z"/>
	</g>
	<g>
		<path class="st0" d="M333.2,307.3v266.4c-15.2,2.5-30.8,3.8-46.6,3.8s-31.4-1.3-46.6-3.8V307.3c0-25.9,20.9-46.9,46.6-46.9
			C312.3,260.4,333.2,281.5,333.2,307.3z"/>
		<path class="st0" d="M448.1,288.8c0,46.7-19.5,88.7-50.7,118.4v-99.8c0-61.5-49.7-111.6-110.8-111.6
			c-61.1,0-110.8,50.1-110.8,111.6v99.8c-31.3-29.7-50.7-71.7-50.7-118.4c0-89.9,72.3-162.7,161.5-162.7
			C375.8,126,448.1,198.9,448.1,288.8z"/>
		<path class="st0" d="M573.2,288.8c0,119.9-72.6,222.8-175.8,266.4v-71.7c66.9-38.7,111.9-111.4,111.9-194.7
			c0-123.9-99.7-224.4-222.7-224.4S63.9,164.8,63.9,288.8c0,83.3,45.1,156,111.9,194.7v71.7C72.6,511.5,0,408.7,0,288.8
			C0,129.3,128.3,0,286.6,0C444.9,0,573.2,129.3,573.2,288.8z"/>
	</g>
</g>
</svg>
